# xmcd
#
# Track frame offsets:
#	150
#	3623
#	10538
#	27270
#	42543
#	65410
#	81627
#	98547
#	121102
#	141535
#	157470
#	173575
#	190108
#	204985
#	223206
#	238477
#	252171
#	270361
#	286294
#	301016
#	315677
#	332697
#
# Disc length: 4620 seconds
#
# Revision: 1
# Processed by: cddbd v1.5.1PL0 Copyright (c) Steve Scherf et al.
# Submitted via: EasyCDDAExtractor 8.0.0.1
#
DISCID=3c120a16
DTITLE=Saliva doce - Ao vivo em livramento
DYEAR=2005
DGENRE=Forró
TTITLE0=Abertura
TTITLE1=Intrumental
TTITLE2=Vai dar namoro
TTITLE3=Agora estou sofrendo
TTITLE4=Pra mudar de vida
TTITLE5=Desculpe mas eu vou chorar
TTITLE6=Você não me ensinou a te esquecer
TTITLE7=Como eu queria
TTITLE8=Ligação urbana
TTITLE9=Mais uma vez
TTITLE10=Eu te amo
TTITLE11=Eu queria dizer que te amo
TTITLE12=Cadê você
TTITLE13=Arrocha
TTITLE14=tentei te esquecer
TTITLE15=A raposa e as uvas
TTITLE16=Nem um toque
TTITLE17=Sintonia
TTITLE18=Estou pensando em você
TTITLE19=Cadeira de rodas
TTITLE20=Frio, frio
TTITLE21=Não olhe assim
EXTD=
EXTT0=
EXTT1=
EXTT2=
EXTT3=
EXTT4=
EXTT5=
EXTT6=
EXTT7=
EXTT8=
EXTT9=
EXTT10=
EXTT11=
EXTT12=
EXTT13=
EXTT14=
EXTT15=
EXTT16=
EXTT17=
EXTT18=
EXTT19=
EXTT20=
EXTT21=
PLAYORDER=
